<svg width="94" height="94" viewBox="0 0 94 94" fill="none" xmlns="http://www.w3.org/2000/svg">
<g opacity="0.2">
<path d="M84.0366 29.3013L88.3171 33.5916C95.8942 41.1862 95.8942 53.4996 88.3171 61.0969L65.2623 84.2047C60.3515 89.1268 52.3908 89.1268 47.4773 84.202L41.6458 78.357C44.693 81.4114 49.6339 81.4114 52.684 78.357L83.9434 47.0257C88.824 42.1338 88.8569 34.2261 84.0393 29.2986L84.0366 29.3013Z" fill="url(#paint0_linear_578_699)"/>
<path d="M56.1981 86.0594C53.2143 86.0594 50.4073 84.8947 48.2958 82.7803L46.9996 81.4823H47.0676C49.4806 81.4823 51.7524 80.5407 53.4589 78.8318L84.4564 47.7932C87.6439 44.5985 88.9374 40.1901 88.326 36.0129C90.8477 39.1805 92.2146 43.0773 92.2146 47.1864C92.2146 51.9839 90.3477 56.4985 86.9591 59.8919L64.0948 82.7884C61.9861 84.9001 59.1818 86.0648 56.1981 86.0648V86.0594Z" fill="url(#paint1_radial_578_699)" style="mix-blend-mode:color-dodge"/>
<path d="M64.8479 84.0163L60.4793 88.3585C52.9103 95.8766 40.6472 95.882 33.0809 88.364L17.3601 72.7379C12.4554 67.8627 12.4608 59.9585 17.3601 55.0888L22.7954 49.6888C22.8775 49.6018 22.9623 49.5203 23.0389 49.4414C22.9568 49.5284 22.8775 49.61 22.8091 49.7024C20.8943 51.8831 20.4211 54.8767 21.3839 57.4598C21.7642 58.4794 22.3605 59.431 23.1839 60.2495L47.0919 84.0163C51.9966 88.8915 59.9432 88.8915 64.8479 84.0163Z" fill="url(#paint2_linear_578_699)" style="mix-blend-mode:screen"/>
<path d="M46.9777 92.7792C42.1064 92.7792 37.5252 90.8902 34.0796 87.4564L18.2002 71.6313C16.0532 69.4917 14.8734 66.65 14.8734 63.6237C14.8734 60.6002 16.056 57.7557 18.2002 55.6189L19.4988 54.3247C19.4878 56.6791 20.394 59.0334 22.2149 60.8481L46.3643 84.9148C49.0113 87.5501 52.526 89.004 56.2672 89.004C56.9552 89.004 57.6349 88.9544 58.3036 88.858C55.0929 91.3996 51.1417 92.7792 46.9777 92.7792Z" fill="url(#paint3_radial_578_699)" style="mix-blend-mode:color-dodge"/>
<path d="M39.2656 0L39.2602 25.13C39.2656 30.1238 37.2837 34.9045 33.7568 38.434L23.1075 49.0826C23.0639 49.1317 23.012 49.1782 22.9683 49.2301L17.2984 54.9041C12.4093 59.7967 12.4038 67.7381 17.2984 72.6363L5.66103 60.9905C-1.88701 53.4316 -1.88701 41.1822 5.66103 33.6287L39.2656 0Z" fill="url(#paint4_linear_578_699)"/>
<path d="M6.5027 59.9984C3.077 56.5896 1.1897 52.0545 1.1897 47.2325C1.1897 42.4104 3.077 37.8754 6.5027 34.4666L38.0756 3.052V25.041C38.0756 29.7183 36.246 34.1194 32.9192 37.4271L22.2027 48.0854C22.1477 48.1373 22.0928 48.1974 22.0378 48.2548L16.3567 53.9079C13.7277 56.524 12.28 60.0011 12.28 63.7024C12.28 64.4541 12.3404 65.1949 12.4558 65.9221L6.5027 59.9984Z" fill="url(#paint5_radial_578_699)" style="mix-blend-mode:color-dodge"/>
<path d="M83.7403 46.8336L70.4927 59.8856C72.7752 57.6368 73.3583 54.3615 72.2529 51.5818C71.8743 50.6098 71.283 49.7032 70.4871 48.9164L60.8429 39.4146L54.1389 62.2597V0L70.2716 15.8971L79.2471 24.7454L83.8371 29.2676C88.6951 34.1492 88.6592 41.9902 83.7403 46.8363V46.8336Z" fill="url(#paint6_linear_578_699)" style="mix-blend-mode:screen"/>
<path d="M74.1527 54.8608C74.1527 52.4144 73.188 50.1166 71.4341 48.3857L60.1078 37.2078L55.3286 53.5151V3.052L69.3317 16.8717L83.0169 30.3833C87.3834 34.7807 87.3444 41.9162 82.9193 46.2833L74.1527 54.9351V54.8635V54.8608Z" fill="url(#paint7_radial_578_699)" style="mix-blend-mode:color-dodge"/>
<path d="M39.2655 62.2597L39.1556 62.0033C37.7053 58.6457 34.9628 55.994 31.5314 54.6299C34.9628 53.2657 37.7053 50.614 39.1556 47.2564L39.2655 47" fill="url(#paint8_linear_578_699)" style="mix-blend-mode:screen"/>
<path d="M39.2654 0L39.26 25.13C39.2654 30.1238 37.2959 34.9045 33.7908 38.434L23.2079 49.0826C23.1645 49.1317 23.113 49.1782 23.0696 49.2301L17.4349 54.9041C12.5761 59.7967 12.5707 67.7381 17.4349 72.6363C-10.4969 44.5068 39.2654 40.8981 39.2654 0Z" fill="url(#paint9_radial_578_699)" style="mix-blend-mode:color-dodge"/>
<path d="M70.314 59.8856C73.3533 56.8581 73.3533 51.9493 70.3085 48.9164L60.7696 39.4146L54.1389 62.2597V0C54.1389 34.4514 88.3312 41.9357 70.3112 59.8856H70.314Z" fill="url(#paint10_radial_578_699)" style="mix-blend-mode:color-dodge"/>
<path d="M21.5295 76.9089L17.2789 72.5729C12.4825 67.6803 12.4878 59.7479 17.2789 54.8607L22.5942 49.4414L22.6076 49.4551C20.7351 51.6435 20.2723 54.6478 21.2139 57.2401C17.3431 61.6361 11.8137 66.9981 21.5295 76.9089Z" fill="url(#paint11_linear_578_699)" style="mix-blend-mode:multiply"/>
<path d="M69.6076 79.8463L65.1936 84.2074C60.2129 89.1284 52.1377 89.1229 47.1626 84.2074L41.6458 78.754L41.6596 78.7402C43.8875 80.6614 46.9459 81.1362 49.5849 80.1702C54.06 84.1415 59.5185 89.8145 69.6076 79.8463Z" fill="url(#paint12_linear_578_699)" style="mix-blend-mode:multiply"/>
<path d="M83.8068 46.8953L70.7969 59.818C73.0385 57.5915 73.6111 54.3487 72.5256 51.5965C78.9953 45.2294 92.1083 37.6548 79.3942 25.0259L83.9018 29.5033C88.6727 34.3365 88.6374 42.0998 83.8068 46.898V46.8953Z" fill="url(#paint13_linear_578_699)" style="mix-blend-mode:multiply"/>
</g>
<g filter="url(#filter0_d_578_699)">
<path d="M40.0916 65.6112L22.2883 46.8936L48.2159 19.6344L53.3698 25.053L32.5961 46.8936L40.0916 54.7741L47.5871 46.8936H37.5658L47.7975 36.2776L57.8949 46.8936L40.0916 65.6112Z" fill="#FF9600"/>
<path d="M61.2627 45.0752L71.4061 44.8635L55.5931 28.1341L50.4392 33.5526L61.2627 45.0752Z" fill="#FEBA00"/>
<path d="M41.6794 68.8928L47.0586 74.0991L72.0746 47.8274H61.8859L41.6794 68.8928Z" fill="#FEBA00"/>
</g>
<defs>
<filter id="filter0_d_578_699" x="22.2883" y="19.6343" width="57.7863" height="62.4648" filterUnits="userSpaceOnUse" color-interpolation-filters="sRGB">
<feFlood flood-opacity="0" result="BackgroundImageFix"/>
<feColorMatrix in="SourceAlpha" type="matrix" values="0 0 0 0 0 0 0 0 0 0 0 0 0 0 0 0 0 0 127 0" result="hardAlpha"/>
<feOffset dx="4" dy="4"/>
<feGaussianBlur stdDeviation="2"/>
<feComposite in2="hardAlpha" operator="out"/>
<feColorMatrix type="matrix" values="0 0 0 0 0 0 0 0 0 0 0 0 0 0 0 0 0 0 0.25 0"/>
<feBlend mode="normal" in2="BackgroundImageFix" result="effect1_dropShadow_578_699"/>
<feBlend mode="normal" in="SourceGraphic" in2="effect1_dropShadow_578_699" result="shape"/>
</filter>
<linearGradient id="paint0_linear_578_699" x1="53.1471" y1="68.892" x2="84.4015" y2="51.742" gradientUnits="userSpaceOnUse">
<stop offset="0.04" stop-color="#FFBB00"/>
<stop offset="0.28" stop-color="#FF9300"/>
<stop offset="1" stop-color="#FF9E00"/>
</linearGradient>
<radialGradient id="paint1_radial_578_699" cx="0" cy="0" r="1" gradientUnits="userSpaceOnUse" gradientTransform="translate(112.59 46.3346) scale(37.9595 38.0131)">
<stop stop-color="white"/>
<stop offset="0.14" stop-color="#BEBDBD"/>
<stop offset="0.31" stop-color="#7D7B7B"/>
<stop offset="0.46" stop-color="#484646"/>
<stop offset="0.58" stop-color="#231F1F"/>
<stop offset="0.69" stop-color="#0C0808"/>
<stop offset="0.75" stop-color="#040000"/>
</radialGradient>
<linearGradient id="paint2_linear_578_699" x1="52.5465" y1="89.4081" x2="15.349" y2="55.7736" gradientUnits="userSpaceOnUse">
<stop stop-color="#2D2D2D"/>
<stop offset="0.72"/>
<stop offset="0.98"/>
</linearGradient>
<radialGradient id="paint3_radial_578_699" cx="0" cy="0" r="1" gradientUnits="userSpaceOnUse" gradientTransform="translate(43.6731 105.333) scale(29.9131 29.8108)">
<stop stop-color="white"/>
<stop offset="0.14" stop-color="#BEBDBD"/>
<stop offset="0.31" stop-color="#7D7B7B"/>
<stop offset="0.46" stop-color="#484646"/>
<stop offset="0.58" stop-color="#231F1F"/>
<stop offset="0.69" stop-color="#0C0808"/>
<stop offset="0.75" stop-color="#040000"/>
</radialGradient>
<linearGradient id="paint4_linear_578_699" x1="31.6384" y1="14.3693" x2="6.28242" y2="61.9289" gradientUnits="userSpaceOnUse">
<stop offset="0.04" stop-color="#FFBB00"/>
<stop offset="0.28" stop-color="#FF9300"/>
<stop offset="1" stop-color="#FF9E00"/>
</linearGradient>
<radialGradient id="paint5_radial_578_699" cx="0" cy="0" r="1" gradientUnits="userSpaceOnUse" gradientTransform="translate(-31.8284 49.72) scale(60.5032 60.2047)">
<stop stop-color="white"/>
<stop offset="0.14" stop-color="#BEBDBD"/>
<stop offset="0.31" stop-color="#7D7B7B"/>
<stop offset="0.46" stop-color="#484646"/>
<stop offset="0.58" stop-color="#231F1F"/>
<stop offset="0.69" stop-color="#0C0808"/>
<stop offset="0.75" stop-color="#040000"/>
</radialGradient>
<linearGradient id="paint6_linear_578_699" x1="60.2128" y1="8.49984" x2="74.0625" y2="63.5455" gradientUnits="userSpaceOnUse">
<stop stop-color="#2D2D2D"/>
<stop offset="0.72"/>
<stop offset="0.98"/>
</linearGradient>
<radialGradient id="paint7_radial_578_699" cx="0" cy="0" r="1" gradientUnits="userSpaceOnUse" gradientTransform="translate(78.2432 4.68384) scale(33.7027 33.2613)">
<stop stop-color="white"/>
<stop offset="0.14" stop-color="#BEBDBD"/>
<stop offset="0.31" stop-color="#7D7B7B"/>
<stop offset="0.46" stop-color="#484646"/>
<stop offset="0.58" stop-color="#231F1F"/>
<stop offset="0.69" stop-color="#0C0808"/>
<stop offset="0.75" stop-color="#040000"/>
</radialGradient>
<linearGradient id="paint8_linear_578_699" x1="39.5229" y1="45.5089" x2="33.5689" y2="64.705" gradientUnits="userSpaceOnUse">
<stop stop-color="#2D2D2D"/>
<stop offset="0.72"/>
<stop offset="0.98"/>
</linearGradient>
<radialGradient id="paint9_radial_578_699" cx="0" cy="0" r="1" gradientUnits="userSpaceOnUse" gradientTransform="translate(-23.668 64.2441) scale(58.3921 58.7996)">
<stop stop-color="white"/>
<stop offset="0.14" stop-color="#BEBDBD"/>
<stop offset="0.31" stop-color="#7D7B7B"/>
<stop offset="0.46" stop-color="#484646"/>
<stop offset="0.58" stop-color="#231F1F"/>
<stop offset="0.69" stop-color="#0C0808"/>
<stop offset="0.75" stop-color="#040000"/>
</radialGradient>
<radialGradient id="paint10_radial_578_699" cx="0" cy="0" r="1" gradientUnits="userSpaceOnUse" gradientTransform="translate(18.6319 7.82193) scale(73.4956 73.2098)">
<stop stop-color="white"/>
<stop offset="0.14" stop-color="#BEBDBD"/>
<stop offset="0.31" stop-color="#7D7B7B"/>
<stop offset="0.46" stop-color="#484646"/>
<stop offset="0.58" stop-color="#231F1F"/>
<stop offset="0.69" stop-color="#0C0808"/>
<stop offset="0.75" stop-color="#040000"/>
</radialGradient>
<linearGradient id="paint11_linear_578_699" x1="18.0118" y1="43.9621" x2="18.4628" y2="84.9694" gradientUnits="userSpaceOnUse">
<stop stop-color="#A4A4A4"/>
<stop offset="1" stop-color="white" stop-opacity="0"/>
</linearGradient>
<linearGradient id="paint12_linear_578_699" x1="36.0706" y1="83.4526" x2="77.8161" y2="82.9972" gradientUnits="userSpaceOnUse">
<stop stop-color="#A4A4A4"/>
<stop offset="1" stop-color="white" stop-opacity="0"/>
</linearGradient>
<linearGradient id="paint13_linear_578_699" x1="63.6542" y1="65.2227" x2="89.7892" y2="22.5102" gradientUnits="userSpaceOnUse">
<stop stop-color="#A4A4A4"/>
<stop offset="1" stop-color="white" stop-opacity="0"/>
</linearGradient>
</defs>
</svg>
