<svg width="367" height="94" viewBox="0 0 367 94" fill="none" xmlns="http://www.w3.org/2000/svg">
<path d="M128.69 42.4602C128.58 42.0085 128.405 41.6122 128.166 41.2713C127.928 40.9219 127.629 40.6278 127.271 40.3892C126.922 40.142 126.513 39.9588 126.044 39.8395C125.584 39.7116 125.077 39.6477 124.523 39.6477C123.33 39.6477 122.311 39.9332 121.467 40.5043C120.632 41.0753 119.993 41.8977 119.55 42.9716C119.115 44.0455 118.898 45.3409 118.898 46.858C118.898 48.392 119.107 49.7045 119.524 50.7955C119.942 51.8864 120.564 52.7216 121.391 53.3011C122.217 53.8807 123.244 54.1705 124.472 54.1705C125.554 54.1705 126.453 54.0128 127.169 53.6974C127.893 53.3821 128.435 52.9347 128.793 52.3551C129.151 51.7756 129.33 51.0937 129.33 50.3097L130.557 50.4375H124.574V45.375H136.182V49.0057C136.182 51.392 135.675 53.4332 134.661 55.1293C133.655 56.8168 132.266 58.1122 130.493 59.0156C128.729 59.9105 126.705 60.358 124.42 60.358C121.872 60.358 119.635 59.8168 117.709 58.7344C115.783 57.652 114.278 56.1094 113.196 54.1065C112.122 52.1037 111.585 49.7216 111.585 46.9602C111.585 44.7955 111.913 42.8778 112.57 41.2074C113.234 39.5369 114.155 38.1264 115.331 36.9759C116.507 35.8168 117.866 34.9432 119.409 34.3551C120.952 33.7585 122.605 33.4602 124.369 33.4602C125.92 33.4602 127.361 33.6818 128.69 34.125C130.028 34.5597 131.209 35.1818 132.232 35.9915C133.263 36.7926 134.094 37.7429 134.724 38.8423C135.355 39.9418 135.739 41.1477 135.875 42.4602H128.69ZM137.62 39.5455V33.8182H160.376V39.5455H152.501V60H145.495V39.5455H137.62ZM163.051 60V33.8182H174.403C176.397 33.8182 178.072 34.0866 179.427 34.6236C180.791 35.1605 181.818 35.919 182.508 36.8991C183.207 37.8793 183.556 39.0341 183.556 40.3636C183.556 41.3267 183.343 42.2045 182.917 42.9972C182.5 43.7898 181.912 44.4545 181.153 44.9915C180.395 45.5199 179.508 45.8864 178.494 46.0909V46.3466C179.619 46.3892 180.642 46.6747 181.562 47.2031C182.483 47.723 183.216 48.4432 183.761 49.3636C184.306 50.2756 184.579 51.3494 184.579 52.5852C184.579 54.017 184.204 55.2912 183.454 56.4077C182.713 57.5241 181.656 58.402 180.284 59.0412C178.912 59.6804 177.275 60 175.375 60H163.051ZM170.159 54.3239H173.483C174.676 54.3239 175.571 54.1023 176.167 53.6591C176.764 53.2074 177.062 52.5426 177.062 51.6648C177.062 51.0511 176.922 50.5312 176.64 50.1051C176.359 49.679 175.958 49.3551 175.439 49.1335C174.927 48.9119 174.309 48.8011 173.585 48.8011H170.159V54.3239ZM170.159 44.4034H173.074C173.696 44.4034 174.245 44.3054 174.723 44.1094C175.2 43.9134 175.571 43.6321 175.835 43.2656C176.108 42.8906 176.244 42.4347 176.244 41.8977C176.244 41.0881 175.954 40.4702 175.375 40.044C174.795 39.6094 174.062 39.392 173.176 39.392H170.159V44.4034ZM201.211 42C201.143 41.1477 200.824 40.483 200.252 40.0057C199.69 39.5284 198.833 39.2898 197.683 39.2898C196.95 39.2898 196.349 39.3793 195.88 39.5582C195.42 39.7287 195.079 39.9631 194.858 40.2614C194.636 40.5597 194.521 40.9006 194.512 41.2841C194.495 41.5994 194.551 41.8849 194.679 42.1406C194.815 42.3878 195.028 42.6136 195.318 42.8182C195.608 43.0142 195.978 43.1932 196.43 43.3551C196.882 43.517 197.419 43.6619 198.041 43.7898L200.189 44.25C201.637 44.5568 202.877 44.9616 203.909 45.4645C204.94 45.9673 205.784 46.5597 206.44 47.2415C207.096 47.9148 207.578 48.6733 207.885 49.517C208.2 50.3608 208.362 51.2812 208.37 52.2784C208.362 54 207.931 55.4574 207.079 56.6506C206.227 57.8438 205.008 58.7514 203.423 59.3736C201.846 59.9957 199.95 60.3068 197.734 60.3068C195.458 60.3068 193.473 59.9702 191.777 59.2969C190.089 58.6236 188.777 57.5881 187.839 56.1903C186.91 54.7841 186.441 52.9858 186.433 50.7955H193.183C193.225 51.5966 193.426 52.2699 193.784 52.8153C194.142 53.3608 194.645 53.7741 195.292 54.0554C195.949 54.3366 196.728 54.4773 197.632 54.4773C198.39 54.4773 199.025 54.3835 199.537 54.196C200.048 54.0085 200.436 53.7486 200.7 53.4162C200.964 53.0838 201.1 52.7045 201.109 52.2784C201.1 51.8778 200.968 51.5284 200.713 51.2301C200.466 50.9233 200.056 50.6506 199.485 50.4119C198.914 50.1648 198.143 49.9347 197.172 49.7216L194.564 49.1591C192.245 48.6562 190.417 47.8168 189.079 46.6406C187.75 45.456 187.089 43.8409 187.098 41.7955C187.089 40.1335 187.532 38.6804 188.427 37.4361C189.331 36.1832 190.579 35.2074 192.173 34.5085C193.775 33.8097 195.612 33.4602 197.683 33.4602C199.797 33.4602 201.625 33.8139 203.167 34.5213C204.71 35.2287 205.899 36.2259 206.734 37.5128C207.578 38.7912 208.004 40.2869 208.012 42H201.211Z" fill="black"/>
<path d="M211.074 60V33.8182H229.483V39.5455H218.182V44.0455H228.358V49.7727H218.182V60H211.074ZM232.098 60V33.8182H239.206V54.2727H249.791V60H232.098ZM259.772 33.8182V60H252.664V33.8182H259.772ZM287.584 43.6364H280.374C280.322 43.0398 280.186 42.4986 279.964 42.0128C279.751 41.527 279.453 41.1094 279.07 40.7599C278.695 40.402 278.239 40.1293 277.702 39.9418C277.165 39.7457 276.555 39.6477 275.874 39.6477C274.68 39.6477 273.67 39.9375 272.844 40.517C272.026 41.0966 271.403 41.9276 270.977 43.0099C270.56 44.0923 270.351 45.392 270.351 46.9091C270.351 48.5114 270.564 49.8537 270.99 50.9361C271.425 52.0099 272.051 52.8196 272.869 53.3651C273.688 53.902 274.672 54.1705 275.822 54.1705C276.479 54.1705 277.067 54.0895 277.587 53.9276C278.107 53.7571 278.558 53.5142 278.942 53.1989C279.325 52.8835 279.636 52.5043 279.875 52.0611C280.122 51.6094 280.288 51.1023 280.374 50.5398L287.584 50.5909C287.499 51.6989 287.188 52.8281 286.651 53.9787C286.114 55.1207 285.351 56.1776 284.362 57.1491C283.382 58.1122 282.168 58.8878 280.719 59.4759C279.27 60.0639 277.587 60.358 275.669 60.358C273.266 60.358 271.109 59.8423 269.2 58.8111C267.3 57.7798 265.795 56.2628 264.688 54.2599C263.588 52.2571 263.038 49.8068 263.038 46.9091C263.038 43.9943 263.601 41.5398 264.726 39.5455C265.851 37.5426 267.368 36.0298 269.277 35.0071C271.186 33.9759 273.317 33.4602 275.669 33.4602C277.322 33.4602 278.844 33.6861 280.233 34.1378C281.622 34.5895 282.841 35.25 283.889 36.1193C284.938 36.9801 285.781 38.0412 286.42 39.3026C287.06 40.5639 287.447 42.0085 287.584 43.6364ZM290.809 60V33.8182H297.917V44.4034H298.275L306.15 33.8182H314.434L305.587 45.4773L314.638 60H306.15L300.269 50.1818L297.917 53.25V60H290.809ZM330.305 42C330.237 41.1477 329.917 40.483 329.346 40.0057C328.784 39.5284 327.927 39.2898 326.777 39.2898C326.044 39.2898 325.443 39.3793 324.974 39.5582C324.514 39.7287 324.173 39.9631 323.951 40.2614C323.73 40.5597 323.615 40.9006 323.606 41.2841C323.589 41.5994 323.645 41.8849 323.772 42.1406C323.909 42.3878 324.122 42.6136 324.412 42.8182C324.701 43.0142 325.072 43.1932 325.524 43.3551C325.975 43.517 326.512 43.6619 327.135 43.7898L329.282 44.25C330.731 44.5568 331.971 44.9616 333.002 45.4645C334.034 45.9673 334.877 46.5597 335.534 47.2415C336.19 47.9148 336.672 48.6733 336.978 49.517C337.294 50.3608 337.456 51.2812 337.464 52.2784C337.456 54 337.025 55.4574 336.173 56.6506C335.321 57.8438 334.102 58.7514 332.517 59.3736C330.94 59.9957 329.044 60.3068 326.828 60.3068C324.552 60.3068 322.566 59.9702 320.87 59.2969C319.183 58.6236 317.87 57.5881 316.933 56.1903C316.004 54.7841 315.535 52.9858 315.527 50.7955H322.277C322.319 51.5966 322.52 52.2699 322.877 52.8153C323.235 53.3608 323.738 53.7741 324.386 54.0554C325.042 54.3366 325.822 54.4773 326.725 54.4773C327.484 54.4773 328.119 54.3835 328.63 54.196C329.142 54.0085 329.529 53.7486 329.794 53.4162C330.058 53.0838 330.194 52.7045 330.203 52.2784C330.194 51.8778 330.062 51.5284 329.806 51.2301C329.559 50.9233 329.15 50.6506 328.579 50.4119C328.008 50.1648 327.237 49.9347 326.265 49.7216L323.657 49.1591C321.339 48.6562 319.511 47.8168 318.173 46.6406C316.843 45.456 316.183 43.8409 316.191 41.7955C316.183 40.1335 316.626 38.6804 317.521 37.4361C318.424 36.1832 319.673 35.2074 321.267 34.5085C322.869 33.8097 324.706 33.4602 326.777 33.4602C328.89 33.4602 330.718 33.8139 332.261 34.5213C333.804 35.2287 334.993 36.2259 335.828 37.5128C336.672 38.7912 337.098 40.2869 337.106 42H330.305ZM339.094 33.8182H347.02L352.134 44.4545H352.338L357.452 33.8182H365.378L355.765 51.767V60H348.708V51.767L339.094 33.8182Z" fill="#F3BB2B"/>
<g opacity="0.2">
<path d="M86.2199 29.3013L90.6116 33.5916C98.3856 41.1862 98.3856 53.4996 90.6116 61.0969L66.9579 84.2048C61.9195 89.1268 53.7519 89.1268 48.7108 84.202L42.7278 78.3571C45.8542 81.4114 50.9235 81.4114 54.0528 78.3571L86.1243 47.0257C91.1317 42.1338 91.1655 34.2261 86.2227 29.2986L86.2199 29.3013Z" fill="url(#paint0_linear_577_681)"/>
<path d="M57.6581 86.0594C54.5969 86.0594 51.7169 84.8947 49.5506 82.7803L48.2207 81.4823H48.2904C50.7662 81.4823 53.0969 80.5407 54.8478 78.8318L86.6506 47.7932C89.9209 44.5985 91.248 40.1901 90.6207 36.0129C93.2079 39.1805 94.6103 43.0773 94.6103 47.1864C94.6103 51.984 92.695 56.4985 89.2183 59.8919L65.76 82.7885C63.5965 84.9002 60.7193 86.0649 57.6581 86.0649V86.0594Z" fill="url(#paint1_radial_577_681)" style="mix-blend-mode:color-dodge"/>
<path d="M66.5327 84.0166L62.0506 88.3588C54.285 95.8769 41.7033 95.8823 33.9404 88.3643L17.8112 72.7381C12.7791 67.8629 12.7847 59.9588 17.8112 55.089L23.3878 49.6891C23.472 49.6021 23.559 49.5205 23.6375 49.4417C23.5533 49.5287 23.472 49.6102 23.4018 49.7027C21.4372 51.8833 20.9517 54.8769 21.9396 57.46C22.3297 58.4796 22.9415 59.4313 23.7863 60.2497L48.3155 84.0166C53.3476 88.8917 61.5006 88.8917 66.5327 84.0166Z" fill="url(#paint2_linear_577_681)" style="mix-blend-mode:screen"/>
<path d="M48.1981 92.7793C43.2002 92.7793 38.5 90.8903 34.965 87.4565L18.6729 71.6313C16.4703 69.4917 15.2598 66.65 15.2598 63.6237C15.2598 60.6002 16.4731 57.7557 18.6729 55.6189L20.0053 54.3247C19.994 56.6791 20.9238 59.0334 22.792 60.8481L47.5688 84.9149C50.2846 87.5501 53.8905 89.004 57.7289 89.004C58.4348 89.004 59.1322 88.9545 59.8182 88.8581C56.5241 91.3997 52.4702 92.7793 48.1981 92.7793Z" fill="url(#paint3_radial_577_681)" style="mix-blend-mode:color-dodge"/>
<path d="M40.2857 0L40.2801 25.13C40.2857 30.1238 38.2524 34.9045 34.6337 38.434L23.7078 49.0826C23.663 49.1318 23.6098 49.1782 23.565 49.2301L17.7478 54.9041C12.7316 59.7968 12.726 67.7382 17.7478 72.6364L5.8081 60.9906C-1.93603 53.4317 -1.93603 41.1822 5.8081 33.6287L40.2857 0Z" fill="url(#paint4_linear_577_681)"/>
<path d="M6.67173 59.9984C3.15704 56.5896 1.2207 52.0546 1.2207 47.2325C1.2207 42.4104 3.15704 37.8754 6.67173 34.4666L39.0649 3.052V25.0411C39.0649 29.7184 37.1877 34.1195 33.7745 37.4271L22.7796 48.0854C22.7232 48.1373 22.6668 48.1975 22.6105 48.2549L16.7818 53.908C14.0844 56.524 12.5991 60.0012 12.5991 63.7024C12.5991 64.4542 12.6611 65.195 12.7795 65.9221L6.67173 59.9984Z" fill="url(#paint5_radial_577_681)" style="mix-blend-mode:color-dodge"/>
<path d="M85.9159 46.8337L72.324 59.8856C74.6659 57.6368 75.2641 54.3616 74.13 51.5818C73.7416 50.6099 73.1349 49.7032 72.3183 48.9164L62.4236 39.4147L55.5454 62.2597V0L72.0972 15.8971L81.3059 24.7454L86.0151 29.2677C90.9993 34.1492 90.9625 41.9902 85.9159 46.8364V46.8337Z" fill="url(#paint6_linear_577_681)" style="mix-blend-mode:screen"/>
<path d="M76.0791 54.8608C76.0791 52.4144 75.0893 50.1167 73.2899 48.3858L61.6694 37.2078L56.766 53.5152V3.052L71.1329 16.8717L85.1736 30.3833C89.6536 34.7807 89.6135 41.9162 85.0735 46.2834L76.0791 54.9351V54.8636V54.8608Z" fill="url(#paint7_radial_577_681)" style="mix-blend-mode:color-dodge"/>
<path d="M40.2856 62.2597L40.1729 62.0033C38.6849 58.6457 35.8712 55.994 32.3506 54.6299C35.8712 53.2657 38.6849 50.614 40.1729 47.2564L40.2856 47" fill="url(#paint8_linear_577_681)" style="mix-blend-mode:screen"/>
<path d="M40.2856 0L40.2801 25.13C40.2856 30.1238 38.2649 34.9045 34.6688 38.434L23.811 49.0826C23.7664 49.1318 23.7135 49.1782 23.669 49.2301L17.888 54.9041C12.903 59.7968 12.8974 67.7382 17.888 72.6364C-10.7695 44.5068 40.2856 40.8981 40.2856 0Z" fill="url(#paint9_radial_577_681)" style="mix-blend-mode:color-dodge"/>
<path d="M72.1407 59.8856C75.2589 56.8582 75.2589 51.9494 72.1351 48.9164L62.3484 39.4147L55.5454 62.2597V0C55.5454 34.4514 90.626 41.9358 72.1379 59.8856H72.1407Z" fill="url(#paint10_radial_577_681)" style="mix-blend-mode:color-dodge"/>
<path d="M22.089 76.9092L17.7279 72.5732C12.8069 67.6806 12.8124 59.7481 17.7279 54.8609L23.1813 49.4417L23.195 49.4553C21.2738 51.6437 20.799 54.6481 21.7651 57.2404C17.7937 61.6364 12.1207 66.9984 22.089 76.9092Z" fill="url(#paint11_linear_577_681)" style="mix-blend-mode:multiply"/>
<path d="M71.4161 79.8463L66.8874 84.2074C61.7773 89.1284 53.4923 89.1229 48.3879 84.2074L42.7278 78.754L42.742 78.7402C45.0278 80.6614 48.1656 81.1362 50.8731 80.1702C55.4645 84.1415 61.0648 89.8145 71.4161 79.8463Z" fill="url(#paint12_linear_577_681)" style="mix-blend-mode:multiply"/>
<path d="M85.984 46.8953L72.6361 59.8181C74.9359 57.5915 75.5234 54.3487 74.4097 51.5965C81.0475 45.2295 94.5012 37.6548 81.4568 25.0259L86.0815 29.5033C90.9763 34.3365 90.9401 42.0999 85.984 46.898V46.8953Z" fill="url(#paint13_linear_577_681)" style="mix-blend-mode:multiply"/>
</g>
<g filter="url(#filter0_d_577_681)">
<path d="M41.0916 65.6112L23.2883 46.8936L49.2159 19.6344L54.3698 25.053L33.5961 46.8936L41.0916 54.7741L48.5871 46.8936H38.5658L48.7975 36.2776L58.8949 46.8936L41.0916 65.6112Z" fill="#FF9600"/>
<path d="M62.2627 45.0752L72.4061 44.8635L56.5931 28.1341L51.4392 33.5526L62.2627 45.0752Z" fill="#FEBA00"/>
<path d="M42.6794 68.8928L48.0586 74.0991L73.0746 47.8274H62.8859L42.6794 68.8928Z" fill="#FEBA00"/>
</g>
<defs>
<filter id="filter0_d_577_681" x="23.2883" y="19.6343" width="57.7863" height="62.4648" filterUnits="userSpaceOnUse" color-interpolation-filters="sRGB">
<feFlood flood-opacity="0" result="BackgroundImageFix"/>
<feColorMatrix in="SourceAlpha" type="matrix" values="0 0 0 0 0 0 0 0 0 0 0 0 0 0 0 0 0 0 127 0" result="hardAlpha"/>
<feOffset dx="4" dy="4"/>
<feGaussianBlur stdDeviation="2"/>
<feComposite in2="hardAlpha" operator="out"/>
<feColorMatrix type="matrix" values="0 0 0 0 0 0 0 0 0 0 0 0 0 0 0 0 0 0 0.25 0"/>
<feBlend mode="normal" in2="BackgroundImageFix" result="effect1_dropShadow_577_681"/>
<feBlend mode="normal" in="SourceGraphic" in2="effect1_dropShadow_577_681" result="shape"/>
</filter>
<linearGradient id="paint0_linear_577_681" x1="54.5279" y1="68.892" x2="86.2084" y2="51.0566" gradientUnits="userSpaceOnUse">
<stop offset="0.04" stop-color="#FFBB00"/>
<stop offset="0.28" stop-color="#FF9300"/>
<stop offset="1" stop-color="#FF9E00"/>
</linearGradient>
<radialGradient id="paint1_radial_577_681" cx="0" cy="0" r="1" gradientUnits="userSpaceOnUse" gradientTransform="translate(115.515 46.3346) scale(38.9456 38.0131)">
<stop stop-color="white"/>
<stop offset="0.14" stop-color="#BEBDBD"/>
<stop offset="0.31" stop-color="#7D7B7B"/>
<stop offset="0.46" stop-color="#484646"/>
<stop offset="0.58" stop-color="#231F1F"/>
<stop offset="0.69" stop-color="#0C0808"/>
<stop offset="0.75" stop-color="#040000"/>
</radialGradient>
<linearGradient id="paint2_linear_577_681" x1="53.9117" y1="89.4084" x2="16.6305" y2="54.8225" gradientUnits="userSpaceOnUse">
<stop stop-color="#2D2D2D"/>
<stop offset="0.72"/>
<stop offset="0.98"/>
</linearGradient>
<radialGradient id="paint3_radial_577_681" cx="0" cy="0" r="1" gradientUnits="userSpaceOnUse" gradientTransform="translate(44.8076 105.333) scale(30.6902 29.8109)">
<stop stop-color="white"/>
<stop offset="0.14" stop-color="#BEBDBD"/>
<stop offset="0.31" stop-color="#7D7B7B"/>
<stop offset="0.46" stop-color="#484646"/>
<stop offset="0.58" stop-color="#231F1F"/>
<stop offset="0.69" stop-color="#0C0808"/>
<stop offset="0.75" stop-color="#040000"/>
</radialGradient>
<linearGradient id="paint4_linear_577_681" x1="32.4604" y1="14.3694" x2="7.46982" y2="62.4611" gradientUnits="userSpaceOnUse">
<stop offset="0.04" stop-color="#FFBB00"/>
<stop offset="0.28" stop-color="#FF9300"/>
<stop offset="1" stop-color="#FF9E00"/>
</linearGradient>
<radialGradient id="paint5_radial_577_681" cx="0" cy="0" r="1" gradientUnits="userSpaceOnUse" gradientTransform="translate(-32.6552 49.7201) scale(62.0751 60.2048)">
<stop stop-color="white"/>
<stop offset="0.14" stop-color="#BEBDBD"/>
<stop offset="0.31" stop-color="#7D7B7B"/>
<stop offset="0.46" stop-color="#484646"/>
<stop offset="0.58" stop-color="#231F1F"/>
<stop offset="0.69" stop-color="#0C0808"/>
<stop offset="0.75" stop-color="#040000"/>
</radialGradient>
<linearGradient id="paint6_linear_577_681" x1="61.7771" y1="8.49985" x2="75.3164" y2="63.71" gradientUnits="userSpaceOnUse">
<stop stop-color="#2D2D2D"/>
<stop offset="0.72"/>
<stop offset="0.98"/>
</linearGradient>
<radialGradient id="paint7_radial_577_681" cx="0" cy="0" r="1" gradientUnits="userSpaceOnUse" gradientTransform="translate(80.2759 4.68384) scale(34.5783 33.2614)">
<stop stop-color="white"/>
<stop offset="0.14" stop-color="#BEBDBD"/>
<stop offset="0.31" stop-color="#7D7B7B"/>
<stop offset="0.46" stop-color="#484646"/>
<stop offset="0.58" stop-color="#231F1F"/>
<stop offset="0.69" stop-color="#0C0808"/>
<stop offset="0.75" stop-color="#040000"/>
</radialGradient>
<linearGradient id="paint8_linear_577_681" x1="40.5497" y1="45.5089" x2="34.7209" y2="64.7897" gradientUnits="userSpaceOnUse">
<stop stop-color="#2D2D2D"/>
<stop offset="0.72"/>
<stop offset="0.98"/>
</linearGradient>
<radialGradient id="paint9_radial_577_681" cx="0" cy="0" r="1" gradientUnits="userSpaceOnUse" gradientTransform="translate(-24.2828 64.2442) scale(59.9091 58.7996)">
<stop stop-color="white"/>
<stop offset="0.14" stop-color="#BEBDBD"/>
<stop offset="0.31" stop-color="#7D7B7B"/>
<stop offset="0.46" stop-color="#484646"/>
<stop offset="0.58" stop-color="#231F1F"/>
<stop offset="0.69" stop-color="#0C0808"/>
<stop offset="0.75" stop-color="#040000"/>
</radialGradient>
<radialGradient id="paint10_radial_577_681" cx="0" cy="0" r="1" gradientUnits="userSpaceOnUse" gradientTransform="translate(19.116 7.82193) scale(75.405 73.2098)">
<stop stop-color="white"/>
<stop offset="0.14" stop-color="#BEBDBD"/>
<stop offset="0.31" stop-color="#7D7B7B"/>
<stop offset="0.46" stop-color="#484646"/>
<stop offset="0.58" stop-color="#231F1F"/>
<stop offset="0.69" stop-color="#0C0808"/>
<stop offset="0.75" stop-color="#040000"/>
</radialGradient>
<linearGradient id="paint11_linear_577_681" x1="18.4799" y1="43.9623" x2="18.9194" y2="84.9699" gradientUnits="userSpaceOnUse">
<stop stop-color="#A4A4A4"/>
<stop offset="1" stop-color="white" stop-opacity="0"/>
</linearGradient>
<linearGradient id="paint12_linear_577_681" x1="37.0078" y1="83.4526" x2="79.8375" y2="82.9732" gradientUnits="userSpaceOnUse">
<stop stop-color="#A4A4A4"/>
<stop offset="1" stop-color="white" stop-opacity="0"/>
</linearGradient>
<linearGradient id="paint13_linear_577_681" x1="65.3078" y1="65.2228" x2="91.1329" y2="21.9204" gradientUnits="userSpaceOnUse">
<stop stop-color="#A4A4A4"/>
<stop offset="1" stop-color="white" stop-opacity="0"/>
</linearGradient>
</defs>
</svg>
